<svg width="35" height="35" viewBox="0 0 35 35" fill="none" xmlns="http://www.w3.org/2000/svg">
<path d="M29.8962 16.4791V10.2666C29.8962 4.38954 28.5253 2.91663 23.0128 2.91663H11.9878C6.47533 2.91663 5.10449 4.38954 5.10449 10.2666V26.6875C5.10449 30.5666 7.23366 31.4854 9.81491 28.7145L9.82949 28.7C11.0253 27.4312 12.8482 27.5333 13.8837 28.9187L15.3566 30.8875M11.667 10.2083H23.3337M13.1253 16.0416H21.8753" stroke="#51624F" stroke-width="1.5" stroke-linecap="round" stroke-linejoin="round"/>
<path d="M26.5574 21.5396L21.3949 26.7021C21.1907 26.9063 21.0011 27.2855 20.9574 27.5626L20.6803 29.5313C20.5782 30.2459 21.0741 30.7417 21.7886 30.6396L23.7574 30.3626C24.0345 30.3188 24.4282 30.1292 24.6178 29.9251L29.7803 24.7626C30.6699 23.873 31.0928 22.8376 29.7803 21.5251C28.4824 20.2271 27.447 20.6501 26.5574 21.5396Z" stroke="#51624F" stroke-width="1.5" stroke-miterlimit="10" stroke-linecap="round" stroke-linejoin="round"/>
<path d="M25.8125 22.2833C26.25 23.8583 27.475 25.0833 29.05 25.5208" stroke="#51624F" stroke-width="1.5" stroke-miterlimit="10" stroke-linecap="round" stroke-linejoin="round"/>
</svg>
