<svg width="35" height="35" viewBox="0 0 35 35" fill="none" xmlns="http://www.w3.org/2000/svg">
<path d="M29.8962 16.4791V10.2666C29.8962 4.38954 28.5253 2.91663 23.0128 2.91663H11.9878C6.47533 2.91663 5.10449 4.38954 5.10449 10.2666V26.6875C5.10449 30.5666 7.23366 31.4854 9.81491 28.7145L9.82949 28.7C11.0253 27.4312 12.8482 27.5333 13.8837 28.9187L15.3566 30.8875M11.667 10.2083H23.3337ZM13.1253 16.0416H21.8753Z" fill="#E6D5A9"/>
<path d="M29.8962 16.4791V10.2666C29.8962 4.38954 28.5253 2.91663 23.0128 2.91663H11.9878C6.47533 2.91663 5.10449 4.38954 5.10449 10.2666V26.6875C5.10449 30.5666 7.23366 31.4854 9.81491 28.7145L9.82949 28.7C11.0253 27.4312 12.8482 27.5333 13.8837 28.9187L15.3566 30.8875M11.667 10.2083H23.3337M13.1253 16.0416H21.8753" stroke="#51624F" stroke-width="1.5" stroke-linecap="round" stroke-linejoin="round"/>
<g clip-path="url(#clip0_160_195)">
<path d="M23.6253 30.5833H26.3753C28.667 30.5833 29.5837 29.6666 29.5837 27.375V24.625C29.5837 22.3333 28.667 21.4166 26.3753 21.4166H23.6253C21.3337 21.4166 20.417 22.3333 20.417 24.625V27.375C20.417 29.6666 21.3337 30.5833 23.6253 30.5833Z" fill="#E6D5A9" stroke="#51624F" stroke-linecap="round" stroke-linejoin="round"/>
<path d="M23.0518 26L24.3488 27.297L26.9476 24.7029" stroke="#51624F" stroke-linecap="round" stroke-linejoin="round"/>
</g>
<defs>
<clipPath id="clip0_160_195">
<rect width="11" height="11" fill="white" transform="translate(19.5 20.5)"/>
</clipPath>
</defs>
</svg>
